<?xml version="1.0" encoding="UTF-8"?>
<svg width="280px" height="256px" viewBox="0 0 280 256" version="1.1" xmlns="http://www.w3.org/2000/svg" xmlns:xlink="http://www.w3.org/1999/xlink">
    <title>Group 24</title>
    <defs>
        <filter x="-46.4%" y="-62.6%" width="192.8%" height="225.2%" filterUnits="objectBoundingBox" id="filter-1">
            <feOffset dx="0" dy="6" in="SourceAlpha" result="shadowOffsetOuter1"></feOffset>
            <feGaussianBlur stdDeviation="17" in="shadowOffsetOuter1" result="shadowBlurOuter1"></feGaussianBlur>
            <feColorMatrix values="0 0 0 0 0.00392156863   0 0 0 0 1   0 0 0 0 0.0745098039  0 0 0 0.8 0" type="matrix" in="shadowBlurOuter1" result="shadowMatrixOuter1"></feColorMatrix>
            <feMerge>
                <feMergeNode in="shadowMatrixOuter1"></feMergeNode>
                <feMergeNode in="SourceGraphic"></feMergeNode>
            </feMerge>
        </filter>
    </defs>
    <g id="Page-1" stroke="none" stroke-width="1" fill="none" fill-rule="evenodd">
        <g id="Academy" transform="translate(-48.000000, -1730.000000)" fill="#01FF13">
            <g id="Group-24" transform="translate(60.000000, 1730.000000)">
                <g id="Group-5" fill-rule="nonzero">
                    <path d="M256,245 L256,247 L247,246.999 L247,256 L245,256 L245,245 L256,245 Z" id="Combined-Shape" transform="translate(250.500000, 250.500000) scale(1, -1) rotate(-270.000000) translate(-250.500000, -250.500000) "></path>
                    <path d="M11,245 L11,247 L1.999,246.999 L2,256 L-1.36424205e-12,256 L-1.36424205e-12,245 L11,245 Z" id="Combined-Shape-Copy" transform="translate(5.500000, 250.500000) scale(-1, -1) rotate(-270.000000) translate(-5.500000, -250.500000) "></path>
                    <path d="M256,2.2759572e-13 L256,2 L247,1.999 L247,11 L245,11 L245,2.27373675e-13 L256,2.2759572e-13 Z" id="Combined-Shape" transform="translate(250.500000, 5.500000) rotate(-270.000000) translate(-250.500000, -5.500000) "></path>
                    <path d="M11,2.2759572e-13 L11,2 L2,1.999 L2,11 L0,11 L0,2.27373675e-13 L11,2.2759572e-13 Z" id="Combined-Shape-Copy" transform="translate(5.500000, 5.500000) scale(-1, 1) rotate(-270.000000) translate(-5.500000, -5.500000) "></path>
                </g>
                <g id="Group-81" filter="url(#filter-1)" transform="translate(45.000000, 67.000000)">
                    <path d="M137.726176,120.793506 L137.24138,122.44486 L122.365517,122.44486 L122.828305,120.793506 L137.726176,120.793506 Z M138.870067,116.896488 L138.384642,118.547842 L123.459733,118.547842 L123.922521,116.896488 L138.870067,116.896488 Z M140.014398,113.000415 L139.529602,114.651769 L132.426186,114.651769 L132.91161,113.000415 L140.014398,113.000415 Z M141.158917,109.103965 L140.674122,110.755318 L133.573849,110.755318 L134.060531,109.103965 L141.158917,109.103965 Z M142.302745,105.207262 L141.818579,106.858615 L134.722079,106.858615 L135.208761,105.207262 L142.302745,105.207262 Z M143.447265,101.310558 L142.963098,102.961912 L135.870371,102.961912 L136.357053,101.310558 L143.447265,101.310558 Z M91.7533561,97.4144231 L91.2836515,99.0657769 L80.3697803,99.0657769 L80.8401136,97.4144231 L91.7533561,97.4144231 Z M144.591785,97.4144231 L144.106989,99.0657769 L137.018664,99.0657769 L137.504717,97.4144231 L144.591785,97.4144231 Z M92.8632295,93.51772 L92.3928962,95.1690738 L81.4796538,95.1690738 L81.9499871,93.51772 L92.8632295,93.51772 Z M145.736053,93.51772 L145.251258,95.1690738 L138.166705,95.1690738 L138.653386,93.51772 L145.736053,93.51772 Z M93.9725371,89.6207646 L93.5022038,91.2721185 L82.5889614,91.2721185 L83.0592947,89.6207646 L93.9725371,89.6207646 Z M146.88051,89.6207646 L146.395714,91.2721185 L139.314934,91.2721185 L139.801616,89.6207646 L146.88051,89.6207646 Z M88.0764561,85.7245662 L88.0714258,87.37592 L77.6329182,87.37592 L77.6329182,85.7245662 L88.0764561,85.7245662 Z M106.807795,85.7245662 L105.867129,87.37592 L94.8331591,87.37592 L95.7744545,85.7245662 L106.807795,85.7245662 Z M148.024652,85.7245662 L147.539228,87.37592 L140.463478,87.37592 L140.95016,85.7245662 L148.024652,85.7245662 Z M17.9151098,85.7245662 L17.4189962,87.37592 L2.55193561,87.37592 L3.04050379,85.7245662 L17.9151098,85.7245662 Z M88.0902894,81.8275477 L88.0846303,83.4789015 L77.6329182,83.4789015 L77.6329182,81.8275477 L88.0902894,81.8275477 Z M103.469435,81.8275477 L102.496071,83.4789015 L90.8075333,83.4789015 L91.7450561,81.8275477 L103.469435,81.8275477 Z M149.169172,81.8275477 L148.684377,83.4789015 L141.612399,83.4789015 L142.098452,81.8275477 L149.169172,81.8275477 Z M19.0868561,81.8275477 L18.5907424,83.4789015 L3.70544697,83.4789015 L4.19464394,81.8275477 L19.0868561,81.8275477 Z M88.1034939,77.9314123 L88.0978348,79.5821354 L77.6329182,79.5821354 L77.6329182,77.9314123 L88.1034939,77.9314123 Z M105.764196,77.9314123 L104.791461,79.5821354 L93.0205523,79.5821354 L93.958075,77.9314123 L105.764196,77.9314123 Z M150.313,77.9314123 L149.828833,79.5821354 L142.760629,79.5821354 L143.246682,77.9314123 L150.313,77.9314123 Z M12.4953356,77.9315385 L12.0092826,79.5822615 L4.85933561,79.5822615 L5.34790379,77.9315385 L12.4953356,77.9315385 Z M108.058958,74.0347092 L107.086223,75.6860631 L95.2335712,75.6860631 L96.1710939,74.0347092 L108.058958,74.0347092 Z M88.1166985,74.0347092 L88.1110394,75.6860631 L77.6329182,75.6860631 L77.6329182,74.0347092 L88.1166985,74.0347092 Z M151.45752,74.0347092 L150.972724,75.6860631 L143.908921,75.6860631 L144.394974,74.0347092 L151.45752,74.0347092 Z M13.6411758,74.0347092 L13.1557515,75.6860631 L6.01335,75.6860631 L6.50191818,74.0347092 L13.6411758,74.0347092 Z M110.354411,70.1379431 L109.381676,71.7899277 L97.4460242,71.7899277 L98.383547,70.1379431 L110.354411,70.1379431 Z M152.602668,70.1379431 L152.117244,71.7899277 L145.057214,71.7899277 L145.543267,70.1379431 L152.602668,70.1379431 Z M88.129903,70.1379431 L88.1242439,71.7899277 L77.6329182,71.7899277 L77.6329182,70.1379431 L88.129903,70.1379431 Z M14.7877076,70.1379431 L14.3022833,71.7899277 L7.16679848,71.7899277 L7.65599545,70.1379431 L14.7877076,70.1379431 Z M88.1431076,66.2415554 L88.1380773,67.8929092 L77.6329182,67.8929092 L77.6329182,66.2415554 L88.1431076,66.2415554 Z M164.486382,66.2415554 L164.004102,67.8929092 L149.136412,67.8929092 L149.618064,66.2415554 L164.486382,66.2415554 Z M112.65043,66.2415554 L111.677066,67.8929092 L99.6590432,67.8929092 L100.597195,66.2415554 L112.65043,66.2415554 Z M15.9346167,66.2415554 L15.4485636,67.8929092 L8.32062424,67.8929092 L8.80982121,66.2415554 L15.9346167,66.2415554 Z M88.1569409,62.34542 L88.1512818,63.9961431 L77.6329182,63.9961431 L77.6329182,62.34542 L88.1569409,62.34542 Z M114.945254,62.34542 L113.972519,63.9961431 L101.872125,63.9961431 L102.809648,62.34542 L114.945254,62.34542 Z M165.623733,62.3456092 L165.141453,63.9963323 L150.272506,63.9963323 L150.754786,62.3456092 L165.623733,62.3456092 Z M17.080897,62.34542 L16.5948439,63.9961431 L9.47445,63.9961431 L9.96364697,62.34542 L17.080897,62.34542 Z M156.014723,58.4484015 L155.527412,60.1003862 L148.477442,60.1003862 L148.963495,58.4484015 L156.014723,58.4484015 Z M88.1592045,58.4484015 L88.1592045,60.1003862 L77.637697,60.1003862 L77.6433561,58.4484015 L88.1592045,58.4484015 Z M15.3668841,58.4478338 L14.8676265,60.1004492 L-6.28787877e-05,60.1004492 L0.498565909,58.4478338 L15.3668841,58.4478338 Z M64.298528,58.4484015 L63.3622629,60.1003862 L51.2316871,60.1003862 L52.1937326,58.4484015 L64.298528,58.4484015 Z M88.1593303,54.5517615 L88.1593303,56.2031154 L77.6510273,56.2031154 L77.6566864,54.5517615 L88.1593303,54.5517615 Z M66.5081515,54.5517615 L65.5718864,56.2031154 L53.5010455,56.2031154 L54.4624621,54.5517615 L66.5081515,54.5517615 Z M157.164021,54.5517615 L156.676711,56.2031154 L149.624226,56.2031154 L150.110279,54.5517615 L157.164021,54.5517615 Z M16.5464902,54.5516985 L16.0466038,56.2030523 L1.17702803,56.2030523 L1.67628561,54.5516985 L16.5464902,54.5516985 Z M75.4696992,50.6555631 L74.5284038,52.3062862 L61.4527598,52.3062862 L62.3940553,50.6555631 L75.4696992,50.6555631 Z M88.1595189,50.6555631 L88.1595189,52.3062862 L77.6644205,52.3062862 L77.6700795,50.6555631 L88.1595189,50.6555631 Z M20.5711098,50.6555631 L20.0869432,52.3062862 L12.9715795,52.3062862 L13.456375,50.6555631 L20.5711098,50.6555631 Z M158.313886,50.6555631 L157.825946,52.3062862 L150.771575,52.3062862 L151.256999,50.6555631 L158.313886,50.6555631 Z M88.1592045,46.7585446 L88.1592045,48.4098985 L77.6779394,48.4098985 L77.6835985,46.7585446 L88.1592045,46.7585446 Z M159.462807,46.7585446 L158.975496,48.4098985 L151.917352,48.4098985 L152.403405,46.7585446 L159.462807,46.7585446 Z M70.9268955,46.7585446 L69.9900015,48.4098985 L58.0688121,48.4098985 L59.0453197,46.7585446 L70.9268955,46.7585446 Z M21.7138061,46.7585446 L21.2296394,48.4098985 L14.1149045,48.4098985 L14.5997,46.7585446 L21.7138061,46.7585446 Z M88.1592045,42.8621569 L88.1592045,44.5135108 L77.6911439,44.5135108 L77.696803,42.8621569 L88.1592045,42.8621569 Z M160.611728,42.8621569 L160.125046,44.5135108 L153.065016,44.5135108 L153.55044,42.8621569 L160.611728,42.8621569 Z M73.1358273,42.8621569 L72.1995621,44.5135108 L60.3733197,44.5135108 L61.3498273,42.8621569 L73.1358273,42.8621569 Z M22.8562508,42.8621569 L22.3720841,44.5135108 L15.257978,44.5135108 L15.7427735,42.8621569 L22.8562508,42.8621569 Z M88.1592045,38.9657062 L88.1592045,40.61706 L77.7043485,40.61706 L77.7100076,38.9657062 L88.1592045,38.9657062 Z M161.761152,38.9657062 L161.27447,40.61706 L146.447652,40.61706 L146.922387,38.9657062 L161.761152,38.9657062 Z M75.3451364,38.9657062 L74.4088712,40.61706 L62.6775758,40.61706 L63.6540833,38.9657062 L75.3451364,38.9657062 Z M23.9993242,38.9657062 L23.5151576,40.61706 L16.4016803,40.61706 L16.885847,38.9657062 L23.9993242,38.9657062 Z M88.1595189,35.0690031 L88.1595189,36.7203569 L77.7178674,36.7203569 L77.7235265,35.0690031 L88.1595189,35.0690031 Z M162.910199,35.0690662 L162.423517,36.72042 L147.568404,36.72042 L148.044396,35.0690662 L162.910199,35.0690662 Z M77.5543826,35.0690031 L76.6181174,36.7203569 L64.9817689,36.7203569 L65.9589053,35.0690031 L77.5543826,35.0690031 Z M25.1420205,35.0690031 L24.6578538,36.7203569 L17.5443765,36.7203569 L18.029172,35.0690031 L25.1420205,35.0690031 Z M79.7636288,31.1725523 L78.8273636,32.8239062 L67.2865909,32.8239062 L68.2630985,31.1725523 L79.7636288,31.1725523 Z M26.2850939,31.1725523 L25.8009273,32.8239062 L18.6880788,32.8239062 L19.1722455,31.1725523 L26.2850939,31.1725523 Z M81.9732523,27.27648 L81.0363583,28.9272031 L69.5911614,28.9272031 L70.5676689,27.27648 L81.9732523,27.27648 Z M27.4277902,27.27648 L26.9436235,28.9272031 L19.830775,28.9272031 L20.3155705,27.27648 L27.4277902,27.27648 Z M84.182247,23.3792092 L83.2459818,25.0311938 L71.8957318,25.0311938 L72.8722394,23.3792092 L84.182247,23.3792092 Z M28.5702977,23.3793985 L28.0855023,25.0313831 L20.9745402,25.0313831 L21.4587068,23.3793985 L28.5702977,23.3793985 Z M29.7133083,19.4828215 L29.2285129,21.1341754 L22.1175508,21.1341754 L22.6023462,19.4828215 L29.7133083,19.4828215 Z M30.8556902,15.5863077 L30.3715235,17.2376615 L23.2605614,17.2376615 L23.7453568,15.5863077 L30.8556902,15.5863077 Z M31.9984492,11.6895415 L31.5142826,13.3408954 L24.4039492,13.3408954 L24.8887447,11.6895415 L31.9984492,11.6895415 Z M33.1415227,7.79315385 L32.6567273,9.44450769 L25.5470227,9.44450769 L26.0318182,7.79315385 L33.1415227,7.79315385 Z M42.1072833,3.89670308 L41.6432379,5.54805692 L26.6906621,5.54805692 L27.1748288,3.89670308 L42.1072833,3.89670308 Z M43.2015,-6.30769231e-05 L42.7380833,1.65129077 L27.8339242,1.65129077 L28.3180909,-6.30769231e-05 L43.2015,-6.30769231e-05 Z" id="Combined-Shape"></path>
                </g>
            </g>
        </g>
    </g>
</svg>